<?xml version="1.0" ?><svg id="Layer_1" style="enable-background:new 0 0 512 512;" version="1.1" viewBox="0 0 512 512" xml:space="preserve" xmlns="http://www.w3.org/2000/svg" xmlns:xlink="http://www.w3.org/1999/xlink"><style type="text/css">
	.st0{fill:url(#SVGID_1_);}
	.st1{fill:#90C99A;}
	.st2{fill:url(#SVGID_2_);}
	.st3{fill:url(#SVGID_3_);}
	.st4{fill:url(#SVGID_4_);}
	.st5{fill:url(#SVGID_5_);}
	.st6{fill:url(#SVGID_6_);}
	.st7{fill:url(#SVGID_7_);}
	.st8{fill:url(#SVGID_8_);}
	.st9{fill:url(#SVGID_9_);}
	.st10{fill:url(#SVGID_10_);}
	.st11{fill:url(#SVGID_11_);}
	.st12{fill:url(#SVGID_12_);}
	.st13{fill:url(#SVGID_13_);}
	.st14{fill:url(#SVGID_14_);}
	.st15{fill:url(#SVGID_15_);}
	.st16{fill:url(#SVGID_16_);}
	.st17{opacity:0.7;}
	.st18{fill:none;stroke:#FFFFFF;stroke-linecap:round;stroke-linejoin:round;stroke-miterlimit:10;}
	.st19{opacity:0.4;}
	.st20{opacity:0.2;}
	.st21{fill:none;stroke:#FFFFFF;stroke-linejoin:round;stroke-miterlimit:10;}
	.st22{enable-background:new    ;}
	.st23{fill:url(#SVGID_17_);}
	.st24{fill:url(#SVGID_18_);}
	.st25{fill:url(#SVGID_19_);}
	.st26{fill:url(#SVGID_20_);}
	.st27{fill:url(#SVGID_21_);}
	.st28{fill:url(#SVGID_22_);}
	.st29{fill:url(#SVGID_23_);}
	.st30{fill:url(#SVGID_24_);}
	.st31{fill:url(#SVGID_25_);}
	.st32{fill:url(#SVGID_26_);}
	.st33{fill:url(#SVGID_27_);}
	.st34{fill:url(#SVGID_28_);}
	.st35{fill:url(#SVGID_29_);}
	.st36{fill:url(#SVGID_30_);}
	.st37{fill:#FFFFFF;}
	.st38{fill:url(#SVGID_31_);}
	.st39{fill:url(#SVGID_32_);}
	.st40{fill:url(#SVGID_33_);}
	.st41{fill:url(#SVGID_34_);}
	.st42{fill:url(#SVGID_35_);}
	.st43{fill:url(#SVGID_36_);}
	.st44{fill:url(#SVGID_37_);}
	.st45{fill:url(#SVGID_38_);}
	.st46{fill:url(#SVGID_39_);}
	.st47{fill:url(#SVGID_40_);}
	.st48{fill:url(#SVGID_41_);}
	.st49{fill:url(#SVGID_42_);}
	.st50{fill:url(#SVGID_43_);}
	.st51{fill:url(#SVGID_44_);}
	.st52{fill:url(#SVGID_45_);}
	.st53{fill:url(#SVGID_46_);}
	.st54{fill:url(#SVGID_47_);}
	.st55{fill:#528C96;}
	.st56{fill:url(#SVGID_48_);}
	.st57{fill:url(#SVGID_49_);}
	.st58{fill:url(#SVGID_50_);}
	.st59{fill:url(#SVGID_51_);}
	.st60{fill:url(#SVGID_52_);}
	.st61{fill:#F6AD86;}
	.st62{fill:url(#SVGID_53_);}
	.st63{fill:url(#SVGID_54_);}
	.st64{fill:#ED9168;}
	.st65{fill:url(#SVGID_55_);}
	.st66{fill:url(#SVGID_56_);}
	.st67{fill:url(#SVGID_57_);}
	.st68{fill:url(#SVGID_58_);}
	.st69{fill:url(#SVGID_59_);}
	.st70{fill:url(#SVGID_60_);}
	.st71{fill:url(#SVGID_61_);}
	.st72{fill:url(#SVGID_62_);}
	.st73{fill:url(#SVGID_63_);}
	.st74{fill:url(#SVGID_64_);}
	.st75{opacity:0.3;clip-path:url(#SVGID_66_);fill:url(#SVGID_67_);}
	.st76{fill:#DDDDDD;}
	.st77{fill:url(#SVGID_68_);}
	.st78{fill:url(#SVGID_69_);}
	.st79{fill:#502566;}
	.st80{fill:url(#SVGID_70_);}
	.st81{fill:url(#SVGID_71_);}
	.st82{fill:url(#SVGID_72_);}
	.st83{fill:url(#SVGID_73_);}
	.st84{fill:url(#SVGID_74_);}
	.st85{fill:url(#SVGID_75_);}
	.st86{fill:url(#SVGID_76_);}
	.st87{fill:url(#SVGID_77_);}
	.st88{fill:url(#SVGID_78_);}
	.st89{fill:url(#SVGID_79_);}
	.st90{opacity:0.3;clip-path:url(#SVGID_81_);fill:url(#SVGID_82_);}
</style><g><g><linearGradient gradientUnits="userSpaceOnUse" id="SVGID_1_" x1="256" x2="256" y1="136.7409" y2="371.3556"><stop offset="0" style="stop-color:#68BE9F"/><stop offset="1" style="stop-color:#2196A1;stop-opacity:0"/></linearGradient><path class="st0" d="M471.2,57c-39.9,9.7-39.9,113.5-79.8,123.2c-39.9,9.7-39.9-52.1-79.8-42.4c-39.9,9.7-39.9,93.2-79.8,102.9    c-39.9,9.7-39.9-25.9-79.8-16.2c-29.7,7.2-37.3,15.1-55.6,22.7c-0.5,27-7.4,50-46.6,89c-17.2,17.1-32.8,42.1-44,71.4h490.6    c5.2,0,9.4-4.2,9.4-9.4V80.5C497.5,65.4,487.8,53,471.2,57z"/><path class="st1" d="M471,56.2c-20.4,5-30.6,34-40.5,62.2c-9.7,27.7-19.8,56.3-39.3,61c-19.4,4.7-28.9-7.7-39-20.9    c-10-13-20.3-26.5-40.8-21.5c-20.4,5-30.6,28.9-40.5,52c-9.7,22.7-19.8,46.2-39.3,50.9c-19.6,4.8-29.1-1.4-39.2-8    c-10-6.5-20.3-13.1-40.6-8.2c-20,4.9-30.2,10.1-40.1,15.2c-4.7,2.4-9.5,4.9-15.3,7.3c0,0.6,0,1.3,0,1.9c6.3-2.6,11.3-5.1,16.2-7.7    c9.8-5,19.8-10.3,39.7-15.1c19.6-4.8,29.1,1.4,39.2,8c10,6.5,20.3,13.1,40.6,8.2c20.4-5,30.6-28.9,40.5-52    c9.7-22.7,19.8-46.2,39.3-50.9c19.4-4.7,28.9,7.7,39,20.9c10,13,20.3,26.5,40.8,21.5c20.4-5,30.6-34,40.5-62.2    c9.7-27.7,19.8-56.3,39.3-61c16-3.9,26.4,9.8,34.6,24.1v-3.5C498.1,65.3,487.1,52.3,471,56.2z"/><g><g><g><linearGradient gradientUnits="userSpaceOnUse" id="SVGID_2_" x1="189.0764" x2="384.591" y1="298.9797" y2="298.9797"><stop offset="0" style="stop-color:#5A6B88"/><stop offset="0.3348" style="stop-color:#526484"/><stop offset="0.9086" style="stop-color:#3B547C"/><stop offset="1" style="stop-color:#37517B"/></linearGradient><polygon class="st2" points="384.6,316.5 317.4,355.5 189.1,281.5 256.3,242.4      "/></g><linearGradient gradientUnits="userSpaceOnUse" id="SVGID_3_" x1="317.3772" x2="384.591" y1="348.5765" y2="348.5765"><stop offset="0" style="stop-color:#5A6B88"/><stop offset="0.3348" style="stop-color:#526484"/><stop offset="0.9086" style="stop-color:#3B547C"/><stop offset="1" style="stop-color:#37517B"/></linearGradient><polygon class="st3" points="317.4,355.5 317.4,380.7 384.6,341.6 384.6,316.5     "/><linearGradient gradientUnits="userSpaceOnUse" id="SVGID_4_" x1="189.0764" x2="317.3772" y1="331.0696" y2="331.0696"><stop offset="0" style="stop-color:#5A6B88"/><stop offset="0.3348" style="stop-color:#526484"/><stop offset="0.9086" style="stop-color:#3B547C"/><stop offset="1" style="stop-color:#37517B"/></linearGradient><polygon class="st4" points="189.1,281.5 189.1,306.6 317.4,380.7 317.4,355.5     "/><linearGradient gradientUnits="userSpaceOnUse" id="SVGID_5_" x1="317.3772" x2="384.591" y1="337.2369" y2="337.2369"><stop offset="0" style="stop-color:#778DB3"/><stop offset="0.2662" style="stop-color:#6D84AD"/><stop offset="0.7221" style="stop-color:#536E9D"/><stop offset="1" style="stop-color:#406092"/></linearGradient><polygon class="st5" points="317.4,358 384.6,318.9 384.6,316.5 317.4,355.5     "/><linearGradient gradientUnits="userSpaceOnUse" id="SVGID_6_" x1="189.0764" x2="317.3772" y1="319.73" y2="319.73"><stop offset="0" style="stop-color:#778DB3"/><stop offset="0.2662" style="stop-color:#6D84AD"/><stop offset="0.7221" style="stop-color:#536E9D"/><stop offset="1" style="stop-color:#406092"/></linearGradient><polygon class="st6" points="189.1,283.9 317.4,358 317.4,355.5 189.1,281.5     "/></g><g><linearGradient gradientUnits="userSpaceOnUse" id="SVGID_7_" x1="260.8067" x2="317.8661" y1="129.7877" y2="321.1335"><stop offset="0" style="stop-color:#FFFFFF"/><stop offset="0.2697" style="stop-color:#F7F7F9"/><stop offset="0.7318" style="stop-color:#DFDFE8"/><stop offset="1" style="stop-color:#CFD0DC"/></linearGradient><path class="st7" d="M330.3,165.8l-86.5-50c-2.3-1.3-4.2-0.3-4.2,2.4l-0.4,142.8c0,2.7,1.9,5.9,4.2,7.2l86.5,50      c2.3,1.3,4.2,0.3,4.2-2.4l0.4-142.8C334.5,170.4,332.6,167.2,330.3,165.8z"/><g><linearGradient gradientUnits="userSpaceOnUse" id="SVGID_8_" x1="251.945" x2="324.4667" y1="190.14" y2="190.14"><stop offset="0" style="stop-color:#5A6B88"/><stop offset="0.3348" style="stop-color:#526484"/><stop offset="0.9086" style="stop-color:#3B547C"/><stop offset="1" style="stop-color:#37517B"/></linearGradient><path class="st8" d="M253.5,171.9l69.4,40.1c0.9,0.5,1.6,0.1,1.6-0.9c0-1-0.7-2.2-1.6-2.7l-69.4-40.1c-0.9-0.5-1.6-0.1-1.6,0.9       C251.9,170.2,252.6,171.4,253.5,171.9z"/><linearGradient gradientUnits="userSpaceOnUse" id="SVGID_9_" x1="251.7367" x2="324.2583" y1="263.5128" y2="263.5128"><stop offset="0" style="stop-color:#5A6B88"/><stop offset="0.3348" style="stop-color:#526484"/><stop offset="0.9086" style="stop-color:#3B547C"/><stop offset="1" style="stop-color:#37517B"/></linearGradient><path class="st9" d="M322.7,281.7l-69.4-40.1c-0.9-0.5-1.6-0.1-1.6,0.9c0,1,0.7,2.2,1.6,2.7l69.4,40.1c0.9,0.5,1.6,0.1,1.6-0.9       C324.3,283.5,323.6,282.2,322.7,281.7z"/><linearGradient gradientUnits="userSpaceOnUse" id="SVGID_10_" x1="251.7714" x2="324.293" y1="251.2869" y2="251.2869"><stop offset="0" style="stop-color:#5A6B88"/><stop offset="0.3348" style="stop-color:#526484"/><stop offset="0.9086" style="stop-color:#3B547C"/><stop offset="1" style="stop-color:#37517B"/></linearGradient><path class="st10" d="M322.7,269.5l-69.4-40.1c-0.9-0.5-1.6-0.1-1.6,0.9c0,1,0.7,2.2,1.6,2.7l69.4,40.1       c0.9,0.5,1.6,0.1,1.6-0.9C324.3,271.2,323.6,270,322.7,269.5z"/><linearGradient gradientUnits="userSpaceOnUse" id="SVGID_11_" x1="251.8061" x2="324.3278" y1="239.0602" y2="239.0602"><stop offset="0" style="stop-color:#5A6B88"/><stop offset="0.3348" style="stop-color:#526484"/><stop offset="0.9086" style="stop-color:#3B547C"/><stop offset="1" style="stop-color:#37517B"/></linearGradient><path class="st11" d="M322.8,257.3l-69.4-40.1c-0.9-0.5-1.6-0.1-1.6,0.9c0,1,0.7,2.2,1.6,2.7l69.4,40.1       c0.9,0.5,1.6,0.1,1.6-0.9C324.3,259,323.6,257.8,322.8,257.3z"/><linearGradient gradientUnits="userSpaceOnUse" id="SVGID_12_" x1="251.8407" x2="324.3625" y1="226.8337" y2="226.8337"><stop offset="0" style="stop-color:#5A6B88"/><stop offset="0.3348" style="stop-color:#526484"/><stop offset="0.9086" style="stop-color:#3B547C"/><stop offset="1" style="stop-color:#37517B"/></linearGradient><path class="st12" d="M322.8,245.1L253.4,205c-0.9-0.5-1.6-0.1-1.6,0.9c0,1,0.7,2.2,1.6,2.7l69.4,40.1c0.9,0.5,1.6,0.1,1.6-0.9       C324.4,246.8,323.7,245.6,322.8,245.1z"/><linearGradient gradientUnits="userSpaceOnUse" id="SVGID_13_" x1="251.8756" x2="324.3972" y1="214.5931" y2="214.5931"><stop offset="0" style="stop-color:#5A6B88"/><stop offset="0.3348" style="stop-color:#526484"/><stop offset="0.9086" style="stop-color:#3B547C"/><stop offset="1" style="stop-color:#37517B"/></linearGradient><path class="st13" d="M322.8,232.8l-69.4-40.1c-0.9-0.5-1.6-0.1-1.6,0.9c0,1,0.7,2.2,1.6,2.7l69.4,40.1       c0.9,0.5,1.6,0.1,1.6-0.9C324.4,234.5,323.7,233.3,322.8,232.8z"/><linearGradient gradientUnits="userSpaceOnUse" id="SVGID_14_" x1="251.9103" x2="324.432" y1="202.3666" y2="202.3666"><stop offset="0" style="stop-color:#5A6B88"/><stop offset="0.3348" style="stop-color:#526484"/><stop offset="0.9086" style="stop-color:#3B547C"/><stop offset="1" style="stop-color:#37517B"/></linearGradient><path class="st14" d="M322.9,220.6l-69.4-40.1c-0.9-0.5-1.6-0.1-1.6,0.9c0,1,0.7,2.2,1.6,2.7l69.4,40.1       c0.9,0.5,1.6,0.1,1.6-0.9C324.4,222.3,323.7,221.1,322.9,220.6z"/><linearGradient gradientUnits="userSpaceOnUse" id="SVGID_15_" x1="252.0006" x2="305.0372" y1="165.0001" y2="165.0001"><stop offset="0" style="stop-color:#5A6B88"/><stop offset="0.3348" style="stop-color:#526484"/><stop offset="0.9086" style="stop-color:#3B547C"/><stop offset="1" style="stop-color:#37517B"/></linearGradient><path class="st15" d="M253.6,152.4l49.9,28.8c0.9,0.5,1.6,0.1,1.6-0.9c0-1-0.7-2.2-1.6-2.7l-49.9-28.8       c-0.9-0.5-1.6-0.1-1.6,0.9C252,150.7,252.7,151.9,253.6,152.4z"/></g></g><linearGradient gradientUnits="userSpaceOnUse" id="SVGID_16_" x1="286.8337" x2="286.8337" y1="345.6049" y2="95.0963"><stop offset="0" style="stop-color:#ADDCEE"/><stop offset="1" style="stop-color:#5F69AF;stop-opacity:0"/></linearGradient><polygon class="st16" points="189.1,281.5 317.4,355.5 384.6,316.5 384.6,62.1 189.1,62.1    "/><g class="st17"><polyline class="st18" points="334.3,256.2 384.6,285.2 317.4,324.3 189.1,250.2 239.3,221     "/></g><g class="st19"><polyline class="st18" points="334.3,205.8 384.6,234.8 317.4,273.9 189.1,199.8 239.3,170.6     "/></g><g class="st20"><polygon class="st21" points="384.6,189.4 317.4,228.4 189.1,154.3 256.3,115.3     "/></g><g><g><g class="st22"><linearGradient gradientUnits="userSpaceOnUse" id="SVGID_17_" x1="363.0547" x2="394.1296" y1="355.3448" y2="355.3448"><stop offset="0" style="stop-color:#FAD60A"/><stop offset="1" style="stop-color:#F39347"/></linearGradient><path class="st23" d="M389.1,352.6l-22.3-12.9l-3.8,2.2l22.3,12.9c2.8,1.6,5,5.5,5,8.7l0,7.5l3.8-2.2l0-7.5        C394.1,358.1,391.9,354.2,389.1,352.6z"/><linearGradient gradientUnits="userSpaceOnUse" id="SVGID_18_" x1="363.0462" x2="390.3694" y1="356.4373" y2="356.4373"><stop offset="0" style="stop-color:#F39347"/><stop offset="0.9946" style="stop-color:#EC6629"/></linearGradient><path class="st24" d="M385.3,354.8l-22.3-12.9l0,2.9l22.3,12.9c1.4,0.8,2.5,2.8,2.5,4.4l0,7.5l2.5,1.5l0-7.5        C390.4,360.3,388.1,356.4,385.3,354.8z"/></g></g><g><linearGradient gradientUnits="userSpaceOnUse" id="SVGID_19_" x1="351.2723" x2="382.3472" y1="362.2085" y2="362.2085"><stop offset="0" style="stop-color:#FAD60A"/><stop offset="1" style="stop-color:#F39347"/></linearGradient><path class="st25" d="M377.3,359.5L355,346.6l-3.8,2.2l22.3,12.9c2.8,1.6,5,5.5,5,8.7l0,7.5l3.8-2.2l0-7.5       C382.4,365,380.1,361.1,377.3,359.5z"/><linearGradient gradientUnits="userSpaceOnUse" id="SVGID_20_" x1="351.2638" x2="378.5869" y1="363.301" y2="363.301"><stop offset="0" style="stop-color:#F39347"/><stop offset="0.9946" style="stop-color:#EC6629"/></linearGradient><path class="st26" d="M373.6,361.6l-22.3-12.9l0,2.9l22.3,12.9c1.4,0.8,2.5,2.8,2.5,4.4l0,7.5l2.5,1.5l0-7.5       C378.6,367.1,376.3,363.2,373.6,361.6z"/></g><g><g class="st22"><linearGradient gradientUnits="userSpaceOnUse" id="SVGID_21_" x1="339.4899" x2="370.5648" y1="369.0724" y2="369.0724"><stop offset="0" style="stop-color:#FAD60A"/><stop offset="1" style="stop-color:#F39347"/></linearGradient><path class="st27" d="M365.5,366.3l-22.3-12.9l-3.8,2.2l22.3,12.9c2.8,1.6,5,5.5,5,8.7l0,7.5l3.8-2.2l0-7.5        C370.6,371.8,368.3,367.9,365.5,366.3z"/><linearGradient gradientUnits="userSpaceOnUse" id="SVGID_22_" x1="339.4814" x2="366.8045" y1="370.1648" y2="370.1648"><stop offset="0" style="stop-color:#F39347"/><stop offset="0.9946" style="stop-color:#EC6629"/></linearGradient><path class="st28" d="M361.8,368.5l-22.3-12.9l0,2.9l22.3,12.9c1.4,0.8,2.5,2.8,2.5,4.4l0,7.5l2.5,1.5l0-7.5        C366.8,374,364.6,370.1,361.8,368.5z"/></g></g></g><g><g><g class="st22"><linearGradient gradientTransform="matrix(-1 0 0 1 -566.3848 0)" gradientUnits="userSpaceOnUse" id="SVGID_23_" x1="-802.6536" x2="-771.5787" y1="336.3112" y2="336.3112"><stop offset="0" style="stop-color:#FAD60A"/><stop offset="1" style="stop-color:#F39347"/></linearGradient><path class="st29" d="M210.2,333.6l22.3-12.9l3.8,2.2L214,335.7c-2.8,1.6-5,5.5-5,8.7l0,7.5l-3.8-2.2l0-7.5        C205.2,339.1,207.4,335.2,210.2,333.6z"/><linearGradient gradientTransform="matrix(-1 0 0 1 -566.3848 0)" gradientUnits="userSpaceOnUse" id="SVGID_24_" x1="-802.6622" x2="-775.3389" y1="337.4036" y2="337.4036"><stop offset="0" style="stop-color:#F39347"/><stop offset="0.9946" style="stop-color:#EC6629"/></linearGradient><path class="st30" d="M214,335.7l22.3-12.9l0,2.9L214,338.6c-1.4,0.8-2.5,2.8-2.5,4.4l0,7.5l-2.5,1.5l0-7.5        C208.9,341.2,211.2,337.3,214,335.7z"/></g></g><g><linearGradient gradientTransform="matrix(-1 0 0 1 -566.3848 0)" gradientUnits="userSpaceOnUse" id="SVGID_25_" x1="-814.436" x2="-783.3611" y1="343.175" y2="343.175"><stop offset="0" style="stop-color:#FAD60A"/><stop offset="1" style="stop-color:#F39347"/></linearGradient><path class="st31" d="M222,340.4l22.3-12.9l3.8,2.2l-22.3,12.9c-2.8,1.6-5,5.5-5,8.7l0,7.5l-3.8-2.2l0-7.5       C217,345.9,219.2,342,222,340.4z"/><linearGradient gradientTransform="matrix(-1 0 0 1 -566.3848 0)" gradientUnits="userSpaceOnUse" id="SVGID_26_" x1="-814.4447" x2="-787.1213" y1="344.2675" y2="344.2675"><stop offset="0" style="stop-color:#F39347"/><stop offset="0.9946" style="stop-color:#EC6629"/></linearGradient><path class="st32" d="M225.8,342.6l22.3-12.9l0,2.9l-22.3,12.9c-1.4,0.8-2.5,2.8-2.5,4.4l0,7.5l-2.5,1.5l0-7.5       C220.7,348.1,223,344.2,225.8,342.6z"/></g><g><g class="st22"><linearGradient gradientTransform="matrix(-1 0 0 1 -566.3848 0)" gradientUnits="userSpaceOnUse" id="SVGID_27_" x1="-826.2184" x2="-795.1436" y1="350.0389" y2="350.0389"><stop offset="0" style="stop-color:#FAD60A"/><stop offset="1" style="stop-color:#F39347"/></linearGradient><path class="st33" d="M233.8,347.3l22.3-12.9l3.8,2.2l-22.3,12.9c-2.8,1.6-5,5.5-5,8.7l0,7.5l-3.8-2.2l0-7.5        C228.7,352.8,231,348.9,233.8,347.3z"/><linearGradient gradientTransform="matrix(-1 0 0 1 -566.3848 0)" gradientUnits="userSpaceOnUse" id="SVGID_28_" x1="-826.2271" x2="-798.9037" y1="351.1313" y2="351.1313"><stop offset="0" style="stop-color:#F39347"/><stop offset="0.9946" style="stop-color:#EC6629"/></linearGradient><path class="st34" d="M237.5,349.5l22.3-12.9l0,2.9l-22.3,12.9c-1.4,0.8-2.5,2.8-2.5,4.4l0,7.5l-2.5,1.5l0-7.5        C232.5,355,234.8,351.1,237.5,349.5z"/></g></g></g></g><g><linearGradient gradientUnits="userSpaceOnUse" id="SVGID_29_" x1="388.2465" x2="480.1355" y1="354.4568" y2="187.2789"><stop offset="0" style="stop-color:#ADDCEE"/><stop offset="1" style="stop-color:#5F69AF;stop-opacity:0"/></linearGradient><path class="st35" d="M479.5,280.7l-122-70.4c-2.4-1.4-4.4-0.3-4.4,2.5l0,97.6c0,2.8,2,6.2,4.4,7.6l122,70.4     c2.4,1.4,4.4,0.3,4.4-2.5v-97.6C483.9,285.5,482,282.1,479.5,280.7z"/><g><linearGradient gradientUnits="userSpaceOnUse" id="SVGID_30_" x1="366.5249" x2="421.459" y1="260.8263" y2="320.9428"><stop offset="0" style="stop-color:#FEEA10"/><stop offset="1" style="stop-color:#F8AC16"/></linearGradient><path class="st36" d="M408.7,270l-14.9,20.7c-0.1,0.2-0.4,0.3-0.9,0.1c-0.2-0.1-0.5-0.4-0.6-0.6l-22.6-34.7      c-3.9,3.5-6.3,9.4-6.3,17.2c-0.1,18.7,13.1,41.5,29.4,50.9c16.3,9.4,29.5,1.8,29.6-16.9C422.5,294.5,417,280.7,408.7,270z"/><path class="st37" d="M406.7,264.7c-4.1-5-8.9-9.2-13.9-12.1c-8.7-5-16.6-5.2-22-1.4l21.7,33.4L406.7,264.7z"/></g><g><linearGradient gradientUnits="userSpaceOnUse" id="SVGID_31_" x1="431.8737" x2="475.6166" y1="329.1929" y2="329.1929"><stop offset="0" style="stop-color:#5A6B88"/><stop offset="0.3348" style="stop-color:#526484"/><stop offset="0.9086" style="stop-color:#3B547C"/><stop offset="1" style="stop-color:#37517B"/></linearGradient><polygon class="st38" points="431.9,318.6 475.6,343.9 475.6,339.8 431.9,314.5     "/><linearGradient gradientUnits="userSpaceOnUse" id="SVGID_32_" x1="431.8493" x2="456.8731" y1="331.5342" y2="331.5342"><stop offset="0" style="stop-color:#5A6B88"/><stop offset="0.3348" style="stop-color:#526484"/><stop offset="0.9086" style="stop-color:#3B547C"/><stop offset="1" style="stop-color:#37517B"/></linearGradient><polygon class="st39" points="431.8,326.4 456.9,340.8 456.9,336.7 431.9,322.3     "/><linearGradient gradientUnits="userSpaceOnUse" id="SVGID_33_" x1="431.8945" x2="475.6374" y1="321.4529" y2="321.4529"><stop offset="0" style="stop-color:#5A6B88"/><stop offset="0.3348" style="stop-color:#526484"/><stop offset="0.9086" style="stop-color:#3B547C"/><stop offset="1" style="stop-color:#37517B"/></linearGradient><polygon class="st40" points="431.9,306.8 431.9,310.9 475.6,336.1 475.6,332     "/></g><linearGradient gradientUnits="userSpaceOnUse" id="SVGID_34_" x1="463.8507" x2="483.7157" y1="276.6249" y2="304.7818"><stop offset="0" style="stop-color:#FFFFFF"/><stop offset="0.2331" style="stop-color:#F7F7FA"/><stop offset="0.6321" style="stop-color:#DFE1EC"/><stop offset="1" style="stop-color:#C5CADC"/></linearGradient><path class="st41" d="M473.4,288.9l2-1.1c0.4-0.2,0.4-1,0-1.6c-0.2-0.3-0.5-0.6-0.7-0.8c-0.3-0.2-0.5-0.2-0.7-0.1l-2,1.1l-2-3.4     c-0.2-0.3-0.5-0.6-0.7-0.8c-0.3-0.1-0.5-0.2-0.7-0.1c-0.4,0.2-0.4,1,0,1.6l2,3.4l-2,1.1c-0.4,0.2-0.4,1,0,1.6     c0.2,0.3,0.5,0.6,0.7,0.8c0.3,0.1,0.5,0.2,0.7,0.1l2-1.1l2,3.4c0.2,0.3,0.5,0.6,0.7,0.8c0.3,0.1,0.5,0.2,0.7,0.1     c0.4-0.2,0.4-1,0-1.6L473.4,288.9z"/></g><path class="st37" d="M451.6,219.6l-5.5-9.5c-0.5-0.8-1.1-1.5-1.7-1.8c-0.6-0.4-1.2-0.4-1.7-0.2l-5.5,3.1c-1,0.5-1,2.3,0,3.9    c0.5,0.8,1.1,1.5,1.7,1.8c0.6,0.4,1.2,0.4,1.7,0.2l1.3-0.8l0,10.4c0,1.5,1.1,3.4,2.4,4.2c1.3,0.8,2.4,0.2,2.4-1.4l0-10.4l1.3,2.3    c0.5,0.8,1.1,1.5,1.7,1.8c0.6,0.4,1.2,0.4,1.7,0.2C452.5,223,452.5,221.2,451.6,219.6z"/><linearGradient gradientUnits="userSpaceOnUse" id="SVGID_35_" x1="173.4042" x2="173.4042" y1="200.7666" y2="227.8881"><stop offset="0" style="stop-color:#ADDCEE"/><stop offset="1" style="stop-color:#5F69AF;stop-opacity:0"/></linearGradient><path class="st42" d="M180.6,206.9l-5.5-9.5c-0.5-0.8-1.1-1.5-1.7-1.8c-0.6-0.4-1.2-0.4-1.7-0.2l-5.5,3.1c-1,0.5-1,2.3,0,3.9    c0.5,0.8,1.1,1.5,1.7,1.8c0.6,0.4,1.2,0.4,1.7,0.2l1.3-0.8l0,10.4c0,1.5,1.1,3.4,2.4,4.2c1.3,0.8,2.4,0.2,2.4-1.4l0-10.4l1.3,2.3    c0.5,0.8,1.1,1.5,1.7,1.8c0.6,0.4,1.2,0.4,1.7,0.2C181.6,210.4,181.6,208.6,180.6,206.9z"/><linearGradient gradientUnits="userSpaceOnUse" id="SVGID_36_" x1="173.4042" x2="173.4042" y1="170.4264" y2="197.548"><stop offset="0" style="stop-color:#ADDCEE"/><stop offset="1" style="stop-color:#5F69AF;stop-opacity:0"/></linearGradient><path class="st43" d="M180.6,176.6l-5.5-9.5c-0.5-0.8-1.1-1.5-1.7-1.8c-0.6-0.4-1.2-0.4-1.7-0.2l-5.5,3.1c-1,0.5-1,2.3,0,3.9    c0.5,0.8,1.1,1.5,1.7,1.8c0.6,0.4,1.2,0.4,1.7,0.2l1.3-0.8l0,10.4c0,1.5,1.1,3.4,2.4,4.2c1.3,0.8,2.4,0.2,2.4-1.4l0-10.4l1.3,2.3    c0.5,0.8,1.1,1.5,1.7,1.8c0.6,0.4,1.2,0.4,1.7,0.2C181.6,180,181.6,178.2,180.6,176.6z"/><linearGradient gradientUnits="userSpaceOnUse" id="SVGID_37_" x1="173.4042" x2="173.4042" y1="140.0864" y2="167.2078"><stop offset="0" style="stop-color:#ADDCEE"/><stop offset="1" style="stop-color:#5F69AF;stop-opacity:0"/></linearGradient><path class="st44" d="M180.6,146.3l-5.5-9.5c-0.5-0.8-1.1-1.5-1.7-1.8c-0.6-0.4-1.2-0.4-1.7-0.2l-5.5,3.1c-1,0.5-1,2.3,0,3.9    c0.5,0.8,1.1,1.5,1.7,1.8c0.6,0.4,1.2,0.4,1.7,0.2l1.3-0.8l0,10.4c0,1.5,1.1,3.4,2.4,4.2c1.3,0.8,2.4,0.2,2.4-1.4l0-10.4l1.3,2.3    c0.5,0.8,1.1,1.5,1.7,1.8c0.6,0.4,1.2,0.4,1.7,0.2C181.6,149.7,181.6,147.9,180.6,146.3z"/><g><g><linearGradient gradientUnits="userSpaceOnUse" id="SVGID_38_" x1="61.9058" x2="284.9025" y1="391.7853" y2="391.7853"><stop offset="0" style="stop-color:#5A6B88"/><stop offset="0.3348" style="stop-color:#526484"/><stop offset="0.9086" style="stop-color:#3B547C"/><stop offset="1" style="stop-color:#37517B"/></linearGradient><polygon class="st45" points="284.9,407.9 202,456.5 61.9,375.6 144.8,327     "/></g><g><linearGradient gradientUnits="userSpaceOnUse" id="SVGID_39_" x1="139.939" x2="185.4953" y1="398.9531" y2="398.9531"><stop offset="0" style="stop-color:#ADDCEE"/><stop offset="1" style="stop-color:#5F69AF"/></linearGradient><polygon class="st46" points="179.7,385.7 139.9,408.8 145.8,412.2 185.5,389.1     "/><linearGradient gradientUnits="userSpaceOnUse" id="SVGID_40_" x1="178.7149" x2="230.3532" y1="419.575" y2="419.575"><stop offset="0" style="stop-color:#ADDCEE"/><stop offset="1" style="stop-color:#5F69AF"/></linearGradient><polygon class="st47" points="224.5,404.6 178.7,431.2 184.6,434.6 230.4,408     "/><linearGradient gradientUnits="userSpaceOnUse" id="SVGID_41_" x1="101.1721" x2="130.9598" y1="381.1554" y2="381.1554"><stop offset="0" style="stop-color:#ADDCEE"/><stop offset="1" style="stop-color:#5F69AF"/></linearGradient><polygon class="st48" points="101.2,386.4 107,389.8 131,375.9 125.1,372.5     "/></g><g><linearGradient gradientUnits="userSpaceOnUse" id="SVGID_42_" x1="148.1922" x2="158.238" y1="414.038" y2="414.038"><stop offset="0" style="stop-color:#F39347"/><stop offset="1" style="stop-color:#E0224E"/></linearGradient><polygon class="st49" points="148.2,413.6 154,416.9 158.2,414.5 152.4,411.1     "/><linearGradient gradientUnits="userSpaceOnUse" id="SVGID_43_" x1="186.9594" x2="234.3894" y1="425.5573" y2="425.5573"><stop offset="0" style="stop-color:#F39347"/><stop offset="1" style="stop-color:#E0224E"/></linearGradient><polygon class="st50" points="228.6,411.8 187,436 192.8,439.3 234.4,415.2     "/><linearGradient gradientUnits="userSpaceOnUse" id="SVGID_44_" x1="109.4271" x2="164.8569" y1="378.4701" y2="378.4701"><stop offset="0" style="stop-color:#F39347"/><stop offset="1" style="stop-color:#E0224E"/></linearGradient><polygon class="st51" points="109.4,391.2 115.3,394.6 164.9,365.7 159,362.4     "/></g><g><linearGradient gradientUnits="userSpaceOnUse" id="SVGID_45_" x1="92.9171" x2="133.8725" y1="373.1435" y2="373.1435"><stop offset="0" style="stop-color:#CCD852"/><stop offset="1" style="stop-color:#3CA945"/></linearGradient><polygon class="st52" points="128,361.3 92.9,381.7 98.8,385 133.9,364.6     "/><linearGradient gradientUnits="userSpaceOnUse" id="SVGID_46_" x1="170.4599" x2="195.329" y1="422.5865" y2="422.5865"><stop offset="0" style="stop-color:#CCD852"/><stop offset="1" style="stop-color:#3CA945"/></linearGradient><polygon class="st53" points="170.5,426.4 176.3,429.8 195.3,418.7 189.5,415.4     "/><linearGradient gradientUnits="userSpaceOnUse" id="SVGID_47_" x1="131.6823" x2="196.9823" y1="388.4508" y2="388.4508"><stop offset="0" style="stop-color:#CCD852"/><stop offset="1" style="stop-color:#3CA945"/></linearGradient><polygon class="st54" points="191.1,369.5 131.7,404 137.5,407.4 197,372.9     "/></g><polygon class="st55" points="144.3,339.1 80.4,376.3 196.1,443 195.8,443.2 79.8,376.3 144,338.9    "/><g><linearGradient gradientUnits="userSpaceOnUse" id="SVGID_48_" x1="162.2049" x2="172.2504" y1="422.1281" y2="422.1281"><stop offset="0" style="stop-color:#FAD60A"/><stop offset="1" style="stop-color:#F39347"/></linearGradient><polygon class="st56" points="166.4,419.2 162.2,421.7 168,425 172.3,422.6     "/><linearGradient gradientUnits="userSpaceOnUse" id="SVGID_49_" x1="123.4395" x2="168.9974" y1="389.4277" y2="389.4277"><stop offset="0" style="stop-color:#FAD60A"/><stop offset="1" style="stop-color:#F39347"/></linearGradient><polygon class="st57" points="163.2,376.2 123.4,399.3 129.3,402.7 169,379.6     "/><linearGradient gradientUnits="userSpaceOnUse" id="SVGID_50_" x1="84.6621" x2="114.4499" y1="371.622" y2="371.622"><stop offset="0" style="stop-color:#FAD60A"/><stop offset="1" style="stop-color:#F39347"/></linearGradient><polygon class="st58" points="84.7,376.9 90.5,380.3 114.4,366.3 108.6,363     "/></g><linearGradient gradientUnits="userSpaceOnUse" id="SVGID_51_" x1="173.4041" x2="173.4041" y1="445.0578" y2="155.8743"><stop offset="0" style="stop-color:#ADDCEE"/><stop offset="1" style="stop-color:#5F69AF;stop-opacity:0"/></linearGradient><polygon class="st59" points="61.9,375.6 202.1,456.5 284.9,407.9 284.9,117.8 61.9,125.4    "/></g></g><g><linearGradient gradientUnits="userSpaceOnUse" id="SVGID_52_" x1="174.4667" x2="162.8622" y1="122.6766" y2="176.1146"><stop offset="0" style="stop-color:#344596"/><stop offset="1" style="stop-color:#E72569"/></linearGradient><path class="st60" d="M160.6,141.1c-4.4,3.2-7.4,9.2-6.4,15.8c1.1,6.6,0,12.9-1.2,16.7c-1.2,3.8-5.4,16.5,9.5,16.2    c14.9-0.3,15.9-17.8,14.1-26.7c-1.7-9,1.4-15.3-0.8-18S168.4,135.5,160.6,141.1z"/><path class="st61" d="M217,173.8c2.8-2.2,5.6-4.6,6.2-2.1c0.6,2.6,0.6,2.3-1.4,4.2C219.8,177.7,214.7,175.6,217,173.8z"/><linearGradient gradientUnits="userSpaceOnUse" id="SVGID_53_" x1="183.3499" x2="212.5768" y1="176.8111" y2="179.6764"><stop offset="0" style="stop-color:#36277C"/><stop offset="1" style="stop-color:#47A9E0"/></linearGradient><path class="st62" d="M217.1,173.3c-1.9,0.8-15.1,3.5-20.5,5.2c0,0-0.1,0-0.1-0.1c-2.7-0.7-10-4.3-19.9-8.7    c-1.8-0.8-6-0.9-8.8,0.5c-1.8,0.9-2.4,3.9,0.8,5.5c1.8,0.9,4.3,2.3,10.6,4.6c9,3.3,13.8,4.3,16.3,4.5c0.5,0.1,1.1,0.2,1.7,0    c5.6-1.3,7.6-1.9,14.3-5.4c4.7-2.5,6.5-1.7,7.3-3.2C219.4,175.1,218.5,172.7,217.1,173.3z"/><linearGradient gradientUnits="userSpaceOnUse" id="SVGID_54_" x1="155.3696" x2="156.0859" y1="328.8321" y2="307.486"><stop offset="0" style="stop-color:#344596"/><stop offset="0.6488" style="stop-color:#E72569"/><stop offset="1" style="stop-color:#EFBA92"/></linearGradient><path class="st63" d="M157,326.6c0.3,1.3,0.2,1.8,0.4,2.7c0.2,1.1,1.2,1.5,1.7,2.4c0.6,1,1.6,2.5-2.2,2.6    c-4.1,0.1-6.6-0.2-5.9-2.5c0.7-2.3,0.8-3.4,0.8-4.1c0-0.8,0-1.6,0.5-2C152.7,325.1,156.4,324.2,157,326.6z"/><path class="st64" d="M164.6,159.5c0,0.3-0.5,6.9-0.6,11.9c0,2.5,1.7,4.8,3.5,4.9c0,0,0.1,0,0.1,0c1.7,0,3.8-2.2,3.6-4.6    c-0.3-4.4-0.1-8.9-0.1-9L164.6,159.5z"/><linearGradient gradientUnits="userSpaceOnUse" id="SVGID_55_" x1="165.3947" x2="176.5694" y1="170.8232" y2="220.6797"><stop offset="0" style="stop-color:#36277C"/><stop offset="1" style="stop-color:#47A9E0"/></linearGradient><path class="st65" d="M159.5,187.9c1.5,4.5,2.4,9.2,3.2,13.8c0.6,3.4,0.4,7,0,10.4c-0.3,2.1-0.7,4.1-1.2,6.2    c-0.2,0.8-1.7,7-1.8,7.7c0,0,26.9,0,28.4,0c-0.3-5.6-6.6-23.1-2.3-34.4c3-7.9-1-8.1-3.7-14.6c-0.7-1.6-1.2-3.4-2.3-4.7    c-1-1.3-2.7-2.3-4.4-2.7c-0.9-0.2-1.8-0.3-2.6-0.4c-4.8-0.4-16.1-1.8-17.2,5.1c-0.3,1.9,0,3.7,0.6,5.5c0.6,2,1.6,3.9,2.4,5.8    C158.9,186.3,159.2,187.1,159.5,187.9z"/><linearGradient gradientUnits="userSpaceOnUse" id="SVGID_56_" x1="174.1322" x2="175.6602" y1="259.4545" y2="396.2248"><stop offset="0" style="stop-color:#E6224B"/><stop offset="1" style="stop-color:#9E1460"/></linearGradient><path class="st66" d="M159.8,243.9c0,0-2.5-6.2-0.1-18.1h28.4c0,0,1,8.5,1,18.1H159.8z"/><g><g><linearGradient gradientUnits="userSpaceOnUse" id="SVGID_57_" x1="158.1642" x2="159.6923" y1="259.632" y2="396.4048"><stop offset="0" style="stop-color:#E6224B"/><stop offset="1" style="stop-color:#9E1460"/></linearGradient><path class="st67" d="M165.4,282.6c2.3-9.6-7.2-11.3-10.2-4.3c-4.2,9.8-3.9,41.3-3.7,47.5c0,0.8,0.5,0.7,0.9,0.5      c1.3-0.5,2.5-0.7,3-0.6c1,0.2,1.6,1.3,1.6,1.3C158,318.5,163.2,291.9,165.4,282.6z"/><linearGradient gradientUnits="userSpaceOnUse" id="SVGID_58_" x1="164.5658" x2="166.0938" y1="259.5613" y2="396.3333"><stop offset="0" style="stop-color:#E6224B"/><stop offset="1" style="stop-color:#9E1460"/></linearGradient><path class="st68" d="M173.9,245.2c1-11.9-3.6-21.2-10.7-17.3c-3,1.7-4.1,5-4.5,8.1c-0.4,3.1-2.6,35.6-3.4,41.5      c-1.7,13.2,8.3,9.7,9.4,6C167.5,274.3,173.4,251.7,173.9,245.2z"/></g></g><linearGradient gradientUnits="userSpaceOnUse" id="SVGID_59_" x1="184.8461" x2="186.3741" y1="259.335" y2="396.1065"><stop offset="0" style="stop-color:#E6224B"/><stop offset="1" style="stop-color:#9E1460"/></linearGradient><path class="st69" d="M190.7,282c0.4-9-8-8.8-10.1-1.5c-3.3,11.5,2.4,36.1,2.8,50.2c1.5-2.4,2.8-3,3.5-3c1.1,0.1,1.6,0.9,1.6,0.9    C188.3,310.1,190.3,291.5,190.7,282z"/><linearGradient gradientUnits="userSpaceOnUse" id="SVGID_60_" x1="181.9534" x2="183.4815" y1="259.3672" y2="396.1401"><stop offset="0" style="stop-color:#E6224B"/><stop offset="1" style="stop-color:#9E1460"/></linearGradient><path class="st70" d="M180.9,282.9c1.1,3.7,10.7,7.9,9.7-5.4c-0.4-5.9-1.6-38.5-1.9-41.7c-0.2-3.1-0.8-7.7-2.3-8.3    c-7.6-2.9-15,6.5-13,18.3C174.9,253.7,178.6,275.3,180.9,282.9z"/><path class="st61" d="M221.4,170.9c1.3-1,3.1-2.1,4.4-2.2c1.2-0.1-1.4,1.3-2.4,2.2C222.4,171.7,220.3,171.7,221.4,170.9z"/><path class="st61" d="M160.8,212.4c3.5-0.7,5.2-1.9,6.8-1c1.6,0.9-0.7,3.9-1.9,4.4c-1.2,0.5-5.3,2.6-6.6,1.5    C158,216.2,158.3,212.9,160.8,212.4z"/><linearGradient gradientUnits="userSpaceOnUse" id="SVGID_61_" x1="156.7387" x2="151.0081" y1="176.1972" y2="212.0135"><stop offset="0" style="stop-color:#36277C"/><stop offset="1" style="stop-color:#47A9E0"/></linearGradient><path class="st71" d="M149.2,197.2c2-3.1,6.4-8.9,11.8-16.4c1.1-1.6,2.1-5.7,1.3-8.8c-0.5-1.9-3.3-3.1-5.6-0.3    c-1.3,1.6-3.1,3.7-6.7,9.5c-5.9,9.4-7.5,13.9-8,16c-0.2,0.8,0.2,1.6,1,2.2c0.1,0.1,0.1,0.2,0.2,0.3c3.4,4.6,4.8,6.2,10.7,11    c4.1,3.3,4.2,5.3,5.8,5.4c1.3,0.1,3.2-1.7,2.1-2.8C160.2,212.1,153,201.8,149.2,197.2z"/><path class="st61" d="M160.2,155.6c1.4,5.5,1.8,6.7,4.6,8.5c2.8,1.9,6.4,2.4,9,1.9c2.8-0.5,4.5-3.8,4.7-6.2    c0.3-2.5,0.1-8.4-1.6-14.3c-0.9-3-5.3-6.1-9.2-5.5C163.8,140.7,156.7,142.3,160.2,155.6z"/><linearGradient gradientUnits="userSpaceOnUse" id="SVGID_62_" x1="190.5856" x2="191.3019" y1="330.0146" y2="308.6703"><stop offset="0" style="stop-color:#344596"/><stop offset="0.6488" style="stop-color:#E72569"/><stop offset="1" style="stop-color:#EFBA92"/></linearGradient><path class="st72" d="M188.8,328.5c0.3,0.6,1.9,2.1,4,3.1c2.2,1,6.7,1.4,4.2,2.3c-2.5,0.8-5.5,0.3-7,0.1c-1.5-0.2-2.9-0.3-4.7-0.3    c-2.3,0-2.3-0.2-2-2.8C183.8,327.3,187.8,326.5,188.8,328.5z"/><linearGradient gradientTransform="matrix(0.9873 -0.1591 0.1591 0.9873 -39.1578 48.0165)" gradientUnits="userSpaceOnUse" id="SVGID_63_" x1="192.4794" x2="180.8748" y1="105.9907" y2="159.4295"><stop offset="0" style="stop-color:#344596"/><stop offset="1" style="stop-color:#E72569"/></linearGradient><path class="st73" d="M175.5,142.8c2.8,3.4-11.9,12.7-15.5,12.7c-3.6,0-3.9-6.8-1.7-10.7C160.4,141,169,134.9,175.5,142.8z"/><linearGradient gradientTransform="matrix(0.9873 -0.1591 0.1591 0.9873 -39.1578 48.0165)" gradientUnits="userSpaceOnUse" id="SVGID_64_" x1="199.309" x2="187.7052" y1="107.4746" y2="160.9098"><stop offset="0" style="stop-color:#344596"/><stop offset="1" style="stop-color:#E72569"/></linearGradient><path class="st74" d="M169.5,142.8c1.1,3,6.7,2.9,8,5.3c0.8,1.5,0.3-3.6-1.4-5.7C174.5,140.4,167.4,136.7,169.5,142.8z"/><path class="st61" d="M162.8,154.8c0.8,1.9,0.6,3.9-0.4,4.3c-1,0.4-2.5-0.8-3.3-2.8c-0.8-1.9-0.6-3.9,0.4-4.3    C160.6,151.6,162.1,152.8,162.8,154.8z"/><g><defs><path d="M225.7,168.7c-1.2,0.1-2.9,1-4.2,2c-1,0.3-2.4,1.4-3.8,2.5c-0.2,0-0.4,0-0.6,0.1      c-1.9,0.8-15.1,3.5-20.5,5.2c0,0-0.1,0-0.1-0.1c-2.6-0.7-9.7-4.1-19.2-8.4c0-2.1-0.2-4.2-0.4-5.9c1-1.3,1.5-2.9,1.7-4.2      c0.2-2.2,0.2-6.7-1-11.7c0.8,1.3,0.2-3.7-1.4-5.8c-0.9-1.1-3.4-2.7-5.2-3c-1.2-0.5-2.5-0.6-3.7-0.5c-2-0.2-4.2,0.3-6.7,2.1      c-4.4,3.2-7.4,9.2-6.4,15.8c1.1,6.6,0,12.9-1.2,16.7c-0.3,1.1-0.9,2.9-1.2,4.8c-0.6,0.8-1.2,1.8-1.8,2.8c-5.9,9.4-7.5,13.9-8,16      c-0.2,0.8,0.2,1.6,1,2.2c0.1,0.1,0.1,0.2,0.2,0.3c3.4,4.6,4.8,6.2,10.7,11c3,2.4,3.8,4.1,4.7,4.9c0.1,0.6,0.3,1.2,0.7,1.6      c0.5,0.4,1.4,0.4,2.4,0.1c-0.1,0.3-0.1,0.5-0.2,0.8c-0.2,0.8-1.7,7-1.8,7.7c-0.8,4.2-1.1,7.7-1,10.5c-0.5,4.3-2.6,35.5-3.4,41.2      c0,0.2,0,0.4-0.1,0.6c0,0,0,0,0,0.1c-4.2,9.8-3.9,41.3-3.7,47.5c0,0.3,0.1,0.5,0.2,0.6c-0.1,0.4-0.1,0.8-0.1,1.2      c0,0.8-0.1,1.8-0.8,4.1c-0.7,2.3,1.8,2.6,5.9,2.5c3.9-0.1,2.9-1.6,2.2-2.6c-0.6-0.9-1.6-1.3-1.7-2.4c-0.1-0.8,0-1.3-0.3-2.3      c0,0,0,0,0,0c0.9-8.5,6.1-35.1,8.3-44.4c0.2-0.9,0.3-1.7,0.3-2.4c2.7-9.7,7-26.2,8-33.3c1.3,8,4.5,26,6.7,34.3      c-2.9,11.7,2.6,35.7,2.9,49.5c0,0,0,0,0-0.1c0,0.1-0.1,0.2-0.1,0.3c-0.3,2.6-0.3,2.8,2,2.8c1.8,0,3.2,0,4.7,0.3      c1.5,0.2,4.5,0.8,7-0.1c2.5-0.8-2-1.3-4.2-2.3c-2.2-1-3.7-2.4-4-3.1c-0.1-0.2-0.2-0.3-0.4-0.4c-0.2-18.4,1.8-36.7,2.2-46.2      c0-0.6,0-1.2,0-1.7c0-0.8,0-1.7,0-2.8c-0.3-4.3-1-22.6-1.5-33.6c0-9.6-1-18.1-1-18.1c-0.3-5.6-6.6-23.1-2.3-34.4      c1.8-4.7,1.1-6.7-0.4-8.9c5.1,1.6,8.2,2.2,10.1,2.4c0.5,0.1,1.1,0.2,1.7,0c5.6-1.3,7.6-1.9,14.3-5.4c4.5-2.4,6.4-1.8,7.2-3      c1.1,0.2,2.3,0.1,3.1-0.6c2-1.8,2-1.5,1.4-4.2c-0.1-0.2-0.1-0.4-0.2-0.6c0.1-0.1,0.3-0.2,0.4-0.3      C224.3,170,227,168.6,225.7,168.7z M149.2,197.2c1.2-1.9,3.5-5,6.3-8.8c1.2,0.6,2.7,1.1,4.6,1.3c1.2,3.9,1.9,7.9,2.6,12      c0.6,3.4,0.4,6.9,0,10.3c-0.5,0.1-1.1,0.3-1.8,0.4c0,0,0,0-0.1,0C158.3,209.4,152.5,201.2,149.2,197.2z" id="SVGID_65_"/></defs><clipPath id="SVGID_66_"><use style="overflow:visible;" xlink:href="#SVGID_65_"/></clipPath><linearGradient gradientTransform="matrix(-0.3987 -0.8712 0.5368 -0.4748 129.6585 721.8963)" gradientUnits="userSpaceOnUse" id="SVGID_67_" x1="298.6041" x2="582.6319" y1="178.5557" y2="353.0565"><stop offset="0" style="stop-color:#2A4B9B"/><stop offset="1" style="stop-color:#9E1460"/></linearGradient><path class="st75" d="M96.8,47.1c26.5-4.4,64.1,13.3,71.7,41c7.8,28.3-13.5,41.8,3.9,80.9c13.8,31-2,64.9-5.8,91.7     c-4.1,29.4,10.6,43.6,5.8,69.9c-11.2,60.4-10.5,78.2-52,91c-42.6,13.1-51.4-46.3-79-93.3c-20.4-34.7-32.1-70.6-18.1-96     c20.1-36.6,49.4,0.5,39.1-43.6c-6.2-26.4-5.2-72,33-65.2C133.6,130.4,58.6,53.5,96.8,47.1z"/></g></g><g><path class="st76" d="M342.2,444.9c0,1-11,1.9-24.7,1.9s-24.7-0.8-24.7-1.9c0-1,11-1.9,24.7-1.9S342.2,443.9,342.2,444.9z"/><g><g><path class="st61" d="M292.2,284.7c-0.5-1.2-5.3-10.5-6.8-8.8c-1.6,1.9-0.5,6,0,7.3c1,2.4,3.5,3.7,5,3.5      C291.6,286.6,292.7,285.8,292.2,284.7z"/><path class="st61" d="M292.4,283.9c0-0.6,0.1-4.2-0.6-4.3c-1-0.1-1.2,2.3-1.3,3.8c-0.1,0.8,0.4,2,1.1,2      C292.3,285.5,292.3,284.9,292.4,283.9z"/><linearGradient gradientTransform="matrix(0.8835 -0.4685 0.4685 0.8835 -76.1202 230.9898)" gradientUnits="userSpaceOnUse" id="SVGID_68_" x1="310.9881" x2="322.8013" y1="285.7841" y2="298.1598"><stop offset="0" style="stop-color:#2D2868"/><stop offset="1" style="stop-color:#138D68"/></linearGradient><path class="st77" d="M329.2,347.6c2-0.4,3.2-1.6,6.8-4.7c5.3-4.5,6.2-5.9,8.5-9.7c1.5-2.5-4.6-5.1-7.4-2.3      c-2.4,2.3-7.7,13.2-9.1,14.7C327,346.3,327.6,347.8,329.2,347.6z"/><linearGradient gradientTransform="matrix(0.8835 -0.4685 0.4685 0.8835 -76.1202 230.9898)" gradientUnits="userSpaceOnUse" id="SVGID_69_" x1="321.8995" x2="333.713" y1="275.3677" y2="287.7437"><stop offset="0" style="stop-color:#2D2868"/><stop offset="1" style="stop-color:#138D68"/></linearGradient><path class="st78" d="M344.7,331.8c-0.3-1.6-1.5-5-6.4-12.2c-3-4.4-4.6-6.1-5.7-7.3c-2-2.2-4.9-1.4-5.6-0.1      c-1.1,2.2-1.1,6-0.1,7.2c5.4,6.8,10,11.6,11.1,13.5C339.4,335.8,345,333.7,344.7,331.8z"/><path class="st79" d="M332.4,439c-0.3,1.1-0.2,1.5-0.3,2.3c-0.1,0.9-1,1.2-1.5,2c-0.6,0.8-1.4,2,2,2.1c3.6,0.1,5.8,0,5.2-2      c-0.6-2-0.7-2.9-0.7-3.5c0-0.6,0-1.3-0.4-1.7C336.2,437.7,332.9,437,332.4,439z"/><path class="st79" d="M304.5,440.6c-0.3,0.5-1.6,1.8-3.5,2.6c-1.9,0.8-5.9,1.2-3.7,1.9c2.2,0.7,4.8,0.3,6.1,0.1      c1.3-0.2,2.6-0.2,4.1-0.2c2,0,2.1-0.1,1.8-2.3C309,439.6,305.4,438.9,304.5,440.6z"/><path class="st61" d="M327.6,299.3c-0.4,4.1-0.5,5-2.3,6.7c-1.8,1.7-4.6,1.9-6.6,1.9c-2.1,0-3.5-2.5-4-4.3      c-0.5-1.8-1-5.2-0.4-9.7c0.3-2.3,3.1-5.1,6-5.1C323.3,288.9,328.6,289.2,327.6,299.3z"/><linearGradient gradientTransform="matrix(-0.284 1.0299 -0.9615 -0.3353 780.9263 -59.9154)" gradientUnits="userSpaceOnUse" id="SVGID_70_" x1="464.6101" x2="464.6101" y1="353.7162" y2="424.1213"><stop offset="0" style="stop-color:#36277C"/><stop offset="1" style="stop-color:#138D68"/></linearGradient><path class="st80" d="M288.3,285.3c-0.4,2,0.4,2.1,1.9,7c1.9,6.2,3.4,9.5,5,12.1c1.5,2.5,6.3-2.1,5-5.7      c-1.1-3.1-7.9-12.8-9.2-14.3C290.4,283.6,288.6,283.7,288.3,285.3z"/><linearGradient gradientTransform="matrix(-0.297 0.9549 -0.9549 -0.297 783.529 -41.4004)" gradientUnits="userSpaceOnUse" id="SVGID_71_" x1="476.4935" x2="476.4935" y1="351.3989" y2="426.8085"><stop offset="0" style="stop-color:#36277C"/><stop offset="1" style="stop-color:#138D68"/></linearGradient><path class="st81" d="M294.1,302.1c0.6,1.5,2.5,4.5,8.9,10.5c3.9,3.7,5.8,4.9,7.1,5.9c2.4,1.7,5.1,0.4,5.5-1.1      c0.6-2.4-0.2-6.1-1.4-7c-6.7-5.5-12.3-9.2-13.7-10.8C298.5,297.1,293.4,300.3,294.1,302.1z"/><path class="st61" d="M325.5,306.6c0.1,1.4,0.2,3.1,0.3,4.6c0.1,2-1.5,3.8-3.4,4c-0.1,0-0.2,0-0.2,0c-1.8,0-3.9-1.6-3.7-3.4      c0.1-1.2,0.1-2.3,0.1-3.4c0-2,1.2-3.7,3.1-4.3l0,0C323.5,303.4,325.4,304.6,325.5,306.6z"/><linearGradient gradientUnits="userSpaceOnUse" id="SVGID_72_" x1="319.9285" x2="319.9285" y1="320.9388" y2="396.3476"><stop offset="0" style="stop-color:#36277C"/><stop offset="1" style="stop-color:#138D68"/></linearGradient><path class="st82" d="M333.8,324.2c-3.3,10.9-4.4,22.2-3.7,29.8h-24.9c0,0,0.1-23.3,1.8-36.1c0.4-3,2.1-5.6,5.3-7.3      c1.9-1,5.3-1.5,6.6-1.5h4.6c1.5,0,3.4,0.1,4.9,0.6C335.1,311.8,335.7,317.9,333.8,324.2z"/><linearGradient gradientUnits="userSpaceOnUse" id="SVGID_73_" x1="317.5703" x2="317.5703" y1="476.2044" y2="369.0019"><stop offset="0" style="stop-color:#36277C"/><stop offset="1" style="stop-color:#47A9E0"/></linearGradient><path class="st83" d="M329.9,369.2c0,0,2.2-5.2,0.1-15.2h-24.9c0,0-0.9,7.1-0.9,15.2H329.9z"/><g><g><linearGradient gradientUnits="userSpaceOnUse" id="SVGID_74_" x1="330.9714" x2="330.9714" y1="476.21" y2="369.0024"><stop offset="0" style="stop-color:#36277C"/><stop offset="1" style="stop-color:#47A9E0"/></linearGradient><path class="st84" d="M325,401.8c-2-8.1,6.3-9.5,8.9-3.7c3.7,8.3,3.4,34.8,3.2,40.1c0,0.7,0.1,1.5-0.3,1.8        c-0.7,0.4-2.1,0.4-2.6,0.4c-0.9,0-1.8,0-1.9-1.2C331.7,431.6,327,409.7,325,401.8z"/><linearGradient gradientUnits="userSpaceOnUse" id="SVGID_75_" x1="325.74" x2="325.74" y1="476.2106" y2="369.0019"><stop offset="0" style="stop-color:#36277C"/><stop offset="1" style="stop-color:#47A9E0"/></linearGradient><path class="st85" d="M317.6,370.3c-0.9-10.1,3.1-17.9,9.4-14.6c2.6,1.4,3.6,4.2,3.9,6.8c0.4,2.6,2.3,30.1,3,35        c1.5,11.2-7.3,8.2-8.2,5.1C323.2,394.8,318,375.8,317.6,370.3z"/></g></g><linearGradient gradientUnits="userSpaceOnUse" id="SVGID_76_" x1="307.7348" x2="307.7348" y1="476.2088" y2="369.0025"><stop offset="0" style="stop-color:#36277C"/><stop offset="1" style="stop-color:#47A9E0"/></linearGradient><path class="st86" d="M309.3,442.4c0.3-11.9,5.3-32.7,2.4-42.3c-1.8-6.2-9.2-6.3-8.9,1.2c0.3,8.1,2.8,23.7,2,39.4      C304.7,442.2,309.2,443.8,309.3,442.4z"/><linearGradient gradientUnits="userSpaceOnUse" id="SVGID_77_" x1="310.5149" x2="310.5149" y1="476.2076" y2="369.0032"><stop offset="0" style="stop-color:#36277C"/><stop offset="1" style="stop-color:#47A9E0"/></linearGradient><path class="st87" d="M311.4,402.1c-1,3.1-9.4,6.7-8.5-4.6c0.4-5,1.4-32.5,1.6-35.2c0.2-2.7,0.7-6.5,2-7      c6.7-2.4,13.1,5.5,11.4,15.5C316.7,377.5,313.5,395.7,311.4,402.1z"/><path class="st61" d="M315.4,298.4c0.6,1.4,0.4,2.8-0.3,3.1c-0.7,0.3-1.8-0.6-2.4-2c-0.6-1.4-0.4-2.8,0.3-3.1      C313.8,296.1,314.8,297,315.4,298.4z"/><path class="st61" d="M326.2,298.4c-0.6,1.4-0.4,2.8,0.3,3.1c0.7,0.3,1.8-0.6,2.4-2c0.6-1.4,0.5-2.8-0.3-3.1      C327.8,296.1,326.7,297,326.2,298.4z"/><linearGradient gradientUnits="userSpaceOnUse" id="SVGID_78_" x1="327.5196" x2="315.2997" y1="306.8857" y2="279.7781"><stop offset="0" style="stop-color:#344596"/><stop offset="0.6488" style="stop-color:#E72569"/><stop offset="1" style="stop-color:#EFBA92"/></linearGradient><path class="st88" d="M327.5,291.5c-1.6,2.4-10.5,2.3-13,1.4c-2.5-0.9-2.1-3.1,0.3-4.5c2.4-1.3,5.1-1.1,7.7-0.2      C324,288.9,329.2,289,327.5,291.5z"/></g><linearGradient gradientUnits="userSpaceOnUse" id="SVGID_79_" x1="326.7783" x2="314.5586" y1="307.2194" y2="280.1124"><stop offset="0" style="stop-color:#344596"/><stop offset="0.6488" style="stop-color:#E72569"/><stop offset="1" style="stop-color:#EFBA92"/></linearGradient><path class="st89" d="M317.6,290.8c-2.4,1.4-2.9,2.7-2.9,5.7c0.1,3,1.3,8,6.8,9.1c5.4,1.1,6.7-4.3,7-8c0.3-3.7,0.1-6.5-2.6-7.2     C321.9,289.4,319.1,289.9,317.6,290.8z"/></g><g><defs><path d="M344.7,331.9C344.7,331.9,344.7,331.9,344.7,331.9c-0.3-1.6-1.5-5-6.4-12.2c-2.2-3.2-3.6-5-4.7-6.1      c-1-1.7-2.7-3.1-5.2-3.9c-0.8-0.2-1.7-0.4-2.6-0.5c-0.1-0.9-0.1-1.8-0.2-2.7c0-0.2-0.1-0.4-0.1-0.6c1-0.9,1.4-1.6,1.7-2.8      c0.4-0.7,0.7-1.4,0.9-2.2c0.3-0.4,0.6-0.8,0.9-1.4c0.6-1.4,0.4-2.7-0.2-3.1c0.1-2.2,0-4.1-1-5.1c1.3-2.4-3.7-2.5-5.2-3      c-2.6-1-5.3-1.2-7.7,0.2c-2.4,1.3-2.8,3.6-0.3,4.5c0,0,0.1,0,0.2,0c-0.1,0.3-0.2,0.7-0.3,1c-0.1,1-0.2,1.9-0.2,2.7      c-0.4-0.3-0.8-0.4-1.1-0.3c-0.7,0.3-0.9,1.7-0.3,3.1c0.4,1,1,1.6,1.6,1.9c0.1,0.9,0.3,1.6,0.4,2.2c0.5,1.7,1.8,4.2,3.9,4.3      c0,0.2-0.1,0.3-0.1,0.5c0,0.2,0,0.5,0,0.7c-1.1,0-3.1,0.3-4.8,0.8c-6.5-5.3-11.9-8.9-13.2-10.5c-0.1-0.1-0.1-0.1-0.2-0.2      c0-0.2-0.1-0.4-0.2-0.6c-0.9-2.6-5.7-9.6-8.1-12.8c0.2-0.3,0.2-0.6,0.1-1c0.1-0.2,0.1-0.5,0.1-0.9c0-0.6,0.1-4.2-0.6-4.3      c-0.7-0.1-1,0.9-1.1,2c-1.7-3-4.2-6.9-5.2-5.7c-1.6,1.9-0.5,6,0,7.3c0.6,1.4,1.7,2.5,2.8,3c0,1.2,0.8,2.1,2,6.1      c1.9,6.2,3.4,9.5,5,12.1c0.2,0.3,0.5,0.5,0.8,0.6c1.3,1.7,3.4,4.2,7,7.5c1.8,1.7,3.2,2.9,4.3,3.8c-0.2,0.5-0.3,1-0.3,1.5      c-1.7,12.8-1.8,36.1-1.8,36.1s-0.9,7.1-0.9,15.2l0,0c-0.4,9.2-1,24.7-1.3,28.3c-0.1,0.9-0.1,1.6,0,2.3c0,0.4-0.1,0.9,0,1.4      c0.3,8,2.7,23.5,2,38.9c-0.1,0.1-0.2,0.2-0.3,0.4c-0.3,0.5-1.6,1.8-3.5,2.6c-1.9,0.8-5.9,1.2-3.7,1.9c2.2,0.7,4.8,0.3,6.1,0.1      c1.3-0.2,2.6-0.2,4.1-0.2c2,0,2.1-0.1,1.8-2.3c0-0.1,0-0.1,0-0.2c0,0,0,0,0,0c0.3-11.6,5.1-31.8,2.6-41.7      c1.9-7.1,4.7-22.3,5.9-29c0.9,6,4.6,19.9,7,28.1c0,0.6,0.1,1.3,0.3,2.1c1.9,7.9,6.7,29.8,7.3,37.5c0,0,0,0,0,0      c-0.2,0.8-0.1,1.3-0.2,1.9c-0.1,0.9-1,1.2-1.5,2c-0.6,0.8-1.4,2,2,2.1c3.6,0.1,5.8,0,5.2-2c-0.6-1.9-0.7-2.8-0.7-3.4      c0.2-0.4,0.1-1,0.1-1.6c0.2-5.3,0.5-31.8-3.2-40.1c0,0,0,0,0,0c0-0.2,0-0.3,0-0.5c-0.7-4.8-2.5-31.1-2.9-34.8      c0-2.3-0.1-5.3-0.9-8.8c-0.2-2-0.2-4.2-0.1-6.6c1.6-0.5,2.9-1.8,6.1-4.6c5.3-4.5,6.2-5.9,8.5-9.7      C344.7,332.7,344.8,332.3,344.7,331.9z M330.3,341.7c0.5-4.7,1.4-9.7,2.7-14.8c1.5,1.7,2.7,3.2,3.6,4.3      C334.9,333.3,332.3,338.2,330.3,341.7z" id="SVGID_80_"/></defs><clipPath id="SVGID_81_"><use style="overflow:visible;" xlink:href="#SVGID_80_"/></clipPath><linearGradient gradientTransform="matrix(-0.5115 -0.8102 0.4686 -0.5423 203.943 725.3832)" gradientUnits="userSpaceOnUse" id="SVGID_82_" x1="36.7505" x2="187.7068" y1="381.4896" y2="474.234"><stop offset="0" style="stop-color:#2A4B9B"/><stop offset="1" style="stop-color:#9E1460"/></linearGradient><path class="st90" d="M324.4,318.5c10.7-8.7,37.5-1,43.2,12.5c5.9,13.8-4,22.1,7.5,40.8c9.1,14.8,3.4,33,3.3,46.9     c-0.1,15.2,8.4,21.4,7.7,35c-1.5,31.4,28.8,45.8,8.6,55.2c-20.7,9.6-22.2-4.1-45.7-1c-20.4,2.7-28.5-49.1-29.1-69.3     c-0.6-21.3,13.3-29.9,5-51.6c-4.9-13-8.6-14.4-2-33.1C325.8,345.9,304,335.1,324.4,318.5z"/></g></g></g></svg>